<?xml version="1.0" encoding="UTF-8" standalone="no" ?>
<svg xmlns="http://www.w3.org/2000/svg" width="19.008px" height="8.144px" viewBox="0 -531 1050 450" xmlns:xlink="http://www.w3.org/1999/xlink" style=""><defs><path id="MJX-10-NCM-M-2B" d="M436 268C469 268 486 281 486 306C486 331 469 344 436 344L300 344L300 481C300 514 287 531 262 531C237 531 224 514 224 481L224 344L88 344C55 344 38 331 38 306C38 281 55 268 88 268L224 268L224 131C224 98 237 81 262 81C287 81 300 98 300 131L300 268Z"/><path id="MJX-10-NCM-M-3D" d="M438 342C470 342 486 354 486 379C486 404 468 417 432 417L92 417C56 417 38 404 38 379C38 354 54 342 86 342M432 195C468 195 486 208 486 233C486 258 470 270 438 270L86 270C54 270 38 258 38 233C38 208 56 195 92 195Z"/></defs><g stroke="#000000" fill="#000000" stroke-width="0" transform="scale(1,-1)"><g data-mml-node="math" data-latex="\texttt{+=}" data-semantic-structure="0"><g data-mml-node="mtext" data-latex="\texttt{+=}" data-semantic-type="text" data-semantic-role="unknown" data-semantic-font="monospace" data-semantic-annotation="clearspeak:unit;nemeth:number;depth:1" data-semantic-id="0" data-semantic-attributes="latex:\texttt{+=}" aria-level="0" data-speech-node="true"><use data-c="2B" xmlns:xlink="http://www.w3.org/1999/xlink" xlink:href="#MJX-10-NCM-M-2B"/><use data-c="3D" xmlns:xlink="http://www.w3.org/1999/xlink" xlink:href="#MJX-10-NCM-M-3D" transform="translate(525,0)"/></g></g></g></svg>
