<?xml version="1.0" encoding="UTF-8" standalone="no"?>
<!-- Created with Inkscape (http://www.inkscape.org/) -->

<svg
   width="227.44154mm"
   height="58.212212mm"
   viewBox="0 0 227.44155 58.212211"
   version="1.1"
   id="svg1"
   xml:space="preserve"
   inkscape:version="1.4.3 (0d15f75, 2025-12-25)"
   sodipodi:docname="trmv_ln_naive.svg"
   inkscape:export-filename="trmv_ln_naive.pdf"
   inkscape:export-xdpi="96"
   inkscape:export-ydpi="96"
   xmlns:inkscape="http://www.inkscape.org/namespaces/inkscape"
   xmlns:sodipodi="http://sodipodi.sourceforge.net/DTD/sodipodi-0.dtd"
   xmlns:xlink="http://www.w3.org/1999/xlink"
   xmlns="http://www.w3.org/2000/svg"
   xmlns:svg="http://www.w3.org/2000/svg"><sodipodi:namedview
     id="namedview1"
     pagecolor="#ffffff"
     bordercolor="#000000"
     borderopacity="0.25"
     inkscape:showpageshadow="2"
     inkscape:pageopacity="0.0"
     inkscape:pagecheckerboard="0"
     inkscape:deskcolor="#d1d1d1"
     inkscape:document-units="mm"
     inkscape:zoom="1.3986071"
     inkscape:cx="645.99986"
     inkscape:cy="155.15437"
     inkscape:window-width="1512"
     inkscape:window-height="921"
     inkscape:window-x="0"
     inkscape:window-y="61"
     inkscape:window-maximized="0"
     inkscape:current-layer="layer1" /><defs
     id="defs1"><path
       id="MJX-5-NCM-I-1D465"
       d="m 527,373 c 0,46 -45,69 -95,69 -43,0 -77,-23 -103,-69 -21,46 -56,69 -107,69 -49,0 -89,-23 -121,-68 -27,-39 -41,-68 -41,-87 0,-9 5,-14 15,-14 9,0 15,5 17,14 19,58 61,126 128,126 33,0 49,-21 49,-62 0,-21 -18,-99 -53,-233 C 199,51 169,18 126,18 c -14,0 -27,3 -38,8 26,10 39,28 39,54 0,26 -13,39 -40,39 -33,0 -58,-28 -58,-61 0,-46 47,-69 96,-69 42,0 76,23 103,69 19,-46 55,-69 107,-69 48,0 88,23 120,68 27,39 41,68 41,87 0,9 -5,14 -15,14 -9,0 -14,-5 -17,-14 C 447,87 402,18 337,18 c -33,0 -50,20 -50,61 0,13 5,41 16,86 l 34,135 c 19,75 50,113 94,113 14,0 27,-3 38,-8 -27,-9 -40,-27 -40,-54 0,-26 14,-39 41,-39 32,0 57,29 57,61 z" /><path
       id="MJX-5-NCM-I-1D457"
       d="m 397,621 c 0,27 -14,40 -41,40 -28,0 -56,-28 -56,-56 0,-27 13,-40 40,-40 28,0 57,28 57,56 M 267,444 c -53,0 -98,-40 -120,-75 -27,-43 -40,-70 -40,-82 0,-9 5,-13 15,-13 5,0 8,1 11,2 5,8 8,15 11,20 32,79 72,118 120,118 18,0 27,-14 27,-41 0,-15 -2,-32 -7,-50 L 192,-46 c -14,-58 -54,-129 -117,-129 -9,0 -18,1 -27,4 25,10 37,28 37,53 0,26 -14,39 -41,39 -32,0 -57,-29 -57,-61 0,-44 43,-65 90,-65 43,0 83,15 120,45 35,29 57,66 68,109 l 91,362 c 3,13 5,26 5,38 0,55 -39,95 -94,95 z" /><path
       id="MJX-6-NCM-I-1D457"
       d="m 397,621 c 0,27 -14,40 -41,40 -28,0 -56,-28 -56,-56 0,-27 13,-40 40,-40 28,0 57,28 57,56 M 267,444 c -53,0 -98,-40 -120,-75 -27,-43 -40,-70 -40,-82 0,-9 5,-13 15,-13 5,0 8,1 11,2 5,8 8,15 11,20 32,79 72,118 120,118 18,0 27,-14 27,-41 0,-15 -2,-32 -7,-50 L 192,-46 c -14,-58 -54,-129 -117,-129 -9,0 -18,1 -27,4 25,10 37,28 37,53 0,26 -14,39 -41,39 -32,0 -57,-29 -57,-61 0,-44 43,-65 90,-65 43,0 83,15 120,45 35,29 57,66 68,109 l 91,362 c 3,13 5,26 5,38 0,55 -39,95 -94,95 z" /><marker
       style="overflow:visible"
       id="Triangle-7"
       refX="0"
       refY="0"
       orient="auto-start-reverse"
       inkscape:stockid="Triangle arrow"
       markerWidth="1"
       markerHeight="1"
       viewBox="0 0 1 1"
       inkscape:isstock="true"
       inkscape:collect="always"
       preserveAspectRatio="xMidYMid"><path
         transform="scale(0.5)"
         style="fill:context-stroke;fill-rule:evenodd;stroke:context-stroke;stroke-width:1pt"
         d="M 5.77,0 -2.88,5 V -5 Z"
         id="path135-0" /></marker><path
       id="MJX-8-NCM-I-1D465"
       d="m 527,373 c 0,46 -45,69 -95,69 -43,0 -77,-23 -103,-69 -21,46 -56,69 -107,69 -49,0 -89,-23 -121,-68 -27,-39 -41,-68 -41,-87 0,-9 5,-14 15,-14 9,0 15,5 17,14 19,58 61,126 128,126 33,0 49,-21 49,-62 0,-21 -18,-99 -53,-233 C 199,51 169,18 126,18 c -14,0 -27,3 -38,8 26,10 39,28 39,54 0,26 -13,39 -40,39 -33,0 -58,-28 -58,-61 0,-46 47,-69 96,-69 42,0 76,23 103,69 19,-46 55,-69 107,-69 48,0 88,23 120,68 27,39 41,68 41,87 0,9 -5,14 -15,14 -9,0 -14,-5 -17,-14 C 447,87 402,18 337,18 c -33,0 -50,20 -50,61 0,13 5,41 16,86 l 34,135 c 19,75 50,113 94,113 14,0 27,-3 38,-8 -27,-9 -40,-27 -40,-54 0,-26 14,-39 41,-39 32,0 57,29 57,61 z" /><path
       id="MJX-8-NCM-V-2032"
       d="m 284,549 c -25,0 -42,-10 -51,-31 L 65,96 h 45 l 222,367 c 5,9 8,19 8,30 0,30 -26,56 -56,56 z" /><path
       id="MJX-8-NCM-I-1D457"
       d="m 397,621 c 0,27 -14,40 -41,40 -28,0 -56,-28 -56,-56 0,-27 13,-40 40,-40 28,0 57,28 57,56 M 267,444 c -53,0 -98,-40 -120,-75 -27,-43 -40,-70 -40,-82 0,-9 5,-13 15,-13 5,0 8,1 11,2 5,8 8,15 11,20 32,79 72,118 120,118 18,0 27,-14 27,-41 0,-15 -2,-32 -7,-50 L 192,-46 c -14,-58 -54,-129 -117,-129 -9,0 -18,1 -27,4 25,10 37,28 37,53 0,26 -14,39 -41,39 -32,0 -57,-29 -57,-61 0,-44 43,-65 90,-65 43,0 83,15 120,45 35,29 57,66 68,109 l 91,362 c 3,13 5,26 5,38 0,55 -39,95 -94,95 z" /><marker
       style="overflow:visible"
       id="Triangle-7-9"
       refX="0"
       refY="0"
       orient="auto-start-reverse"
       inkscape:stockid="Triangle arrow"
       markerWidth="1"
       markerHeight="1"
       viewBox="0 0 1 1"
       inkscape:isstock="true"
       inkscape:collect="always"
       preserveAspectRatio="xMidYMid"><path
         transform="scale(0.5)"
         style="fill:context-stroke;fill-rule:evenodd;stroke:context-stroke;stroke-width:1pt"
         d="M 5.77,0 -2.88,5 V -5 Z"
         id="path135-0-2" /></marker><marker
       style="overflow:visible"
       id="Triangle-7-3"
       refX="0"
       refY="0"
       orient="auto-start-reverse"
       inkscape:stockid="Triangle arrow"
       markerWidth="1"
       markerHeight="1"
       viewBox="0 0 1 1"
       inkscape:isstock="true"
       inkscape:collect="always"
       preserveAspectRatio="xMidYMid"><path
         transform="scale(0.5)"
         style="fill:context-stroke;fill-rule:evenodd;stroke:context-stroke;stroke-width:1pt"
         d="M 5.77,0 -2.88,5 V -5 Z"
         id="path135-0-23" /></marker></defs><g
     inkscape:label="Layer 1"
     inkscape:groupmode="layer"
     id="layer1"
     transform="translate(-27.08658,-101.68522)"><rect
       style="fill:none;fill-opacity:0.997297;stroke:#000000;stroke-width:0.05;stroke-linecap:square;stroke-dasharray:none"
       id="rect2-4-8-5-15"
       width="9.7392883"
       height="9.7392883"
       x="36.850868"
       y="115.21187" /><rect
       style="fill:none;fill-opacity:0.997297;stroke:#000000;stroke-width:0.05;stroke-linecap:square;stroke-dasharray:none"
       id="rect2-4-3-2-1"
       width="9.7392883"
       height="9.7392883"
       x="36.850868"
       y="124.95115" /><rect
       style="fill:#dadada;fill-opacity:0.611765;stroke:#000000;stroke-width:0.2;stroke-linecap:square;stroke-dasharray:none"
       id="rect2-4-3-2-1-7"
       width="9.7392883"
       height="9.7392883"
       x="46.590157"
       y="124.95116" /><rect
       style="fill:none;fill-opacity:0.997297;stroke:#000000;stroke-width:0.05;stroke-linecap:square;stroke-dasharray:none"
       id="rect2"
       width="9.7392883"
       height="9.7392883"
       x="27.11158"
       y="105.47259" /><rect
       style="fill:none;fill-opacity:0.997297;stroke:#000000;stroke-width:0.05;stroke-linecap:square;stroke-dasharray:none"
       id="rect2-4"
       width="9.7392883"
       height="9.7392883"
       x="27.11158"
       y="115.21188" /><rect
       style="fill:none;fill-opacity:0.997297;stroke:#000000;stroke-width:0.05;stroke-linecap:square;stroke-dasharray:none"
       id="rect2-4-4"
       width="9.7392883"
       height="9.7392883"
       x="27.11158"
       y="124.95116" /><rect
       style="fill:none;fill-opacity:0.997297;stroke:#000000;stroke-width:0.05;stroke-linecap:square;stroke-dasharray:none"
       id="rect2-4-8"
       width="9.7392883"
       height="9.7392883"
       x="27.11158"
       y="134.69044" /><rect
       style="fill:none;fill-opacity:0.997297;stroke:#000000;stroke-width:0.05;stroke-linecap:square;stroke-dasharray:none"
       id="rect2-4-3"
       width="9.7392883"
       height="9.7392883"
       x="27.11158"
       y="144.42973" /><rect
       style="fill:none;fill-opacity:0.997297;stroke:#000000;stroke-width:0.05;stroke-linecap:square;stroke-dasharray:none"
       id="rect2-4-8-5"
       width="9.7392883"
       height="9.7392883"
       x="56.329445"
       y="134.69044" /><rect
       style="fill:none;fill-opacity:0.997297;stroke:#000000;stroke-width:0.05;stroke-linecap:square;stroke-dasharray:none"
       id="rect2-4-3-2"
       width="9.7392883"
       height="9.7392883"
       x="56.329445"
       y="144.42973" /><rect
       style="fill:none;fill-opacity:0.997297;stroke:#000000;stroke-width:0.05;stroke-linecap:square;stroke-dasharray:none"
       id="rect2-4-8-5-1"
       width="9.7392883"
       height="9.7392883"
       x="46.590157"
       y="134.69044" /><rect
       style="fill:none;fill-opacity:0.997297;stroke:#000000;stroke-width:0.05;stroke-linecap:square;stroke-dasharray:none"
       id="rect2-4-3-2-6"
       width="9.7392883"
       height="9.7392883"
       x="46.590157"
       y="144.42973" /><rect
       style="fill:none;fill-opacity:0.997297;stroke:#000000;stroke-width:0.05;stroke-linecap:square;stroke-dasharray:none"
       id="rect2-4-8-5-6"
       width="9.7392883"
       height="9.7392883"
       x="36.850868"
       y="134.69044" /><rect
       style="fill:none;fill-opacity:0.997297;stroke:#000000;stroke-width:0.05;stroke-linecap:square;stroke-dasharray:none"
       id="rect2-4-3-2-0"
       width="9.7392883"
       height="9.7392883"
       x="36.850868"
       y="144.42973" /><rect
       style="fill:none;fill-opacity:0.997297;stroke:#000000;stroke-width:0.05;stroke-linecap:square;stroke-dasharray:none"
       id="rect2-4-3-9"
       width="9.7392883"
       height="9.7392883"
       x="66.068733"
       y="144.42973" /><text
       xml:space="preserve"
       style="font-size:4.23333px;font-family:Times;-inkscape-font-specification:Times;text-align:center;writing-mode:lr-tb;direction:ltr;text-anchor:middle;fill:#000000;fill-opacity:1;stroke:#000000;stroke-width:0;stroke-linecap:square;stroke-dasharray:none"
       x="51.606255"
       y="158.94856"
       id="text2"><tspan
         sodipodi:role="line"
         id="tspan2"
         style="font-size:4.23333px;fill:#000000;fill-opacity:1;stroke-width:0;stroke-dasharray:none"
         x="51.606255"
         y="158.94856">Step 1</tspan></text><rect
       style="fill:none;fill-opacity:0.997297;stroke:#000000;stroke-width:0.05;stroke-linecap:square;stroke-dasharray:none"
       id="rect2-4-3-1-3"
       width="9.7436123"
       height="5.9805622"
       x="105.47794"
       y="-86.434616"
       transform="rotate(90)" /><rect
       style="fill:none;fill-opacity:0.611765;stroke:#000000;stroke-width:0.05;stroke-linecap:square;stroke-dasharray:none"
       id="rect2-4-3-4-2-9"
       width="9.7436123"
       height="5.9805622"
       x="115.22156"
       y="-86.434616"
       transform="rotate(90)" /><rect
       style="fill:#dadada;fill-opacity:0.611765;stroke:#000000;stroke-width:0.2;stroke-linecap:square;stroke-dasharray:none"
       id="rect2-4-3-5-0-0"
       width="9.7436123"
       height="5.9805622"
       x="124.96516"
       y="-86.434616"
       transform="rotate(90)" /><rect
       style="fill:none;fill-opacity:0.611765;stroke:#000000;stroke-width:0.05;stroke-linecap:square;stroke-dasharray:none"
       id="rect2-4-3-4-2-9-8"
       width="9.7436123"
       height="5.9805622"
       x="134.70877"
       y="-86.434616"
       transform="rotate(90)" /><rect
       style="fill:none;fill-opacity:0.611765;stroke:#000000;stroke-width:0.05;stroke-linecap:square;stroke-dasharray:none"
       id="rect2-4-3-5-0-0-4"
       width="9.7436123"
       height="5.9805622"
       x="144.45238"
       y="-86.434616"
       transform="rotate(90)" /><path
       id="use1-5"
       d="m 84.76599,102.01602 c 0,-0.22027 -0.21548,-0.3304 -0.4549,-0.3304 -0.205901,0 -0.368707,0.11013 -0.493205,0.3304 -0.100557,-0.22027 -0.268151,-0.3304 -0.512359,-0.3304 -0.234632,0 -0.426168,0.11013 -0.579397,0.32561 -0.129286,0.18675 -0.196324,0.32562 -0.196324,0.41659 0,0.0431 0.02394,0.067 0.07183,0.067 0.0431,0 0.07183,-0.0239 0.0814,-0.067 0.09098,-0.27772 0.292092,-0.60333 0.612915,-0.60333 0.158017,0 0.234632,0.10055 0.234632,0.29688 0,0.10055 -0.08619,0.47405 -0.253786,1.11569 -0.0814,0.32083 -0.225054,0.47884 -0.430956,0.47884 -0.06704,0 -0.129286,-0.0144 -0.181959,-0.0383 0.124499,-0.0479 0.186748,-0.13407 0.186748,-0.25857 0,-0.1245 -0.06225,-0.18675 -0.191536,-0.18675 -0.158017,0 -0.277727,0.13408 -0.277727,0.2921 0,0.22026 0.225054,0.33039 0.459686,0.33039 0.201113,0 0.363918,-0.11013 0.493205,-0.33039 0.09098,0.22026 0.263362,0.33039 0.512359,0.33039 0.229843,0 0.421379,-0.11013 0.574604,-0.32561 0.12929,-0.18674 0.19633,-0.32561 0.19633,-0.41659 0,-0.0431 -0.0239,-0.067 -0.0718,-0.067 -0.0431,0 -0.067,0.0239 -0.0814,0.067 -0.0814,0.27294 -0.296881,0.60334 -0.608127,0.60334 -0.158017,0 -0.23942,-0.0958 -0.23942,-0.29209 0,-0.0622 0.02394,-0.19633 0.07661,-0.4118 l 0.162806,-0.64644 c 0.09098,-0.35913 0.23942,-0.54109 0.450109,-0.54109 0.06704,0 0.129292,0.0144 0.181962,0.0383 -0.129289,0.0431 -0.191538,0.12929 -0.191538,0.25858 0,0.12449 0.06704,0.18674 0.196328,0.18674 0.15323,0 0.27294,-0.13886 0.27294,-0.29209 z"
       style="fill:#000000;stroke:#000000;stroke-width:0" /><g
       data-mml-node="msub"
       data-latex="x_j"
       data-semantic-type="subscript"
       data-semantic-role="latinletter"
       data-semantic-annotation="depth:1"
       data-semantic-id="2"
       data-semantic-children="0,1"
       data-semantic-attributes="latex:x_j"
       data-semantic-owns="0 1"
       aria-level="0"
       data-speech-node="true"
       id="g3"
       transform="matrix(0.00478763,0,0,-0.00478763,88.169294,130.53408)"
       style="fill:#000000;stroke:#000000;stroke-width:0"><g
         data-mml-node="mi"
         data-latex="x"
         data-semantic-type="identifier"
         data-semantic-role="latinletter"
         data-semantic-font="italic"
         data-semantic-annotation="clearspeak:simple;nemeth:number;depth:2"
         data-semantic-id="0"
         data-semantic-parent="2"
         data-semantic-attributes="latex:x"
         aria-level="1"
         data-speech-node="true"
         id="g1"><use
           data-c="1D465"
           xlink:href="#MJX-5-NCM-I-1D465"
           id="use1" /></g><g
         data-mml-node="mi"
         transform="matrix(0.707,0,0,0.707,605,-150)"
         data-latex="j"
         data-semantic-type="identifier"
         data-semantic-role="latinletter"
         data-semantic-font="italic"
         data-semantic-annotation="clearspeak:simple;depth:2"
         data-semantic-id="1"
         data-semantic-parent="2"
         data-semantic-attributes="latex:j"
         aria-level="1"
         data-speech-node="true"
         id="g2"><use
           data-c="1D457"
           xlink:href="#MJX-5-NCM-I-1D457"
           id="use2" /></g></g><text
       xml:space="preserve"
       style="font-size:3.175px;font-family:Times;-inkscape-font-specification:Times;text-align:center;writing-mode:lr-tb;direction:ltr;text-anchor:middle;fill:#dadada;fill-opacity:0.611765;stroke:#000000;stroke-width:0;stroke-linecap:square;stroke-dasharray:none"
       x="49.945972"
       y="102.78983"
       id="text3"><tspan
         sodipodi:role="line"
         id="tspan3"
         style="fill:#dadada;fill-opacity:0.611765;stroke-width:0;stroke-dasharray:none"
         x="49.945972"
         y="102.78983" /></text><rect
       style="fill:none;fill-opacity:0.997297;stroke:#000000;stroke-width:0.05;stroke-linecap:square;stroke-dasharray:none"
       id="rect2-4-8-5-15-0"
       width="9.7392883"
       height="9.7392883"
       x="113.38945"
       y="115.23883" /><rect
       style="fill:none;fill-opacity:0.997297;stroke:#000000;stroke-width:0.05;stroke-linecap:square;stroke-dasharray:none"
       id="rect2-4-3-2-1-6"
       width="9.7392883"
       height="9.7392883"
       x="113.38945"
       y="124.97811" /><rect
       style="fill:none;fill-opacity:0.611765;stroke:#000000;stroke-width:0.05;stroke-linecap:square;stroke-dasharray:none"
       id="rect2-4-3-2-1-7-3"
       width="9.7392883"
       height="9.7392883"
       x="123.12875"
       y="124.97812" /><rect
       style="fill:none;fill-opacity:0.997297;stroke:#000000;stroke-width:0.05;stroke-linecap:square;stroke-dasharray:none"
       id="rect2-46"
       width="9.7392883"
       height="9.7392883"
       x="103.65017"
       y="105.49955" /><rect
       style="fill:none;fill-opacity:0.997297;stroke:#000000;stroke-width:0.05;stroke-linecap:square;stroke-dasharray:none"
       id="rect2-4-9"
       width="9.7392883"
       height="9.7392883"
       x="103.65017"
       y="115.23885" /><rect
       style="fill:none;fill-opacity:0.997297;stroke:#000000;stroke-width:0.05;stroke-linecap:square;stroke-dasharray:none"
       id="rect2-4-4-7"
       width="9.7392883"
       height="9.7392883"
       x="103.65017"
       y="124.97812" /><rect
       style="fill:none;fill-opacity:0.997297;stroke:#000000;stroke-width:0.05;stroke-linecap:square;stroke-dasharray:none"
       id="rect2-4-8-4"
       width="9.7392883"
       height="9.7392883"
       x="103.65017"
       y="134.71741" /><rect
       style="fill:none;fill-opacity:0.997297;stroke:#000000;stroke-width:0.05;stroke-linecap:square;stroke-dasharray:none"
       id="rect2-4-3-94"
       width="9.7392883"
       height="9.7392883"
       x="103.65017"
       y="144.4567" /><rect
       style="fill:none;fill-opacity:0.997297;stroke:#000000;stroke-width:0.05;stroke-linecap:square;stroke-dasharray:none"
       id="rect2-4-8-5-19"
       width="9.7392883"
       height="9.7392883"
       x="132.86803"
       y="134.71741" /><rect
       style="fill:none;fill-opacity:0.997297;stroke:#000000;stroke-width:0.05;stroke-linecap:square;stroke-dasharray:none"
       id="rect2-4-3-2-67"
       width="9.7392883"
       height="9.7392883"
       x="132.86803"
       y="144.4567" /><rect
       style="fill:#a3a3a3;fill-opacity:0.611765;stroke:#000000;stroke-width:0.2;stroke-linecap:square;stroke-dasharray:none"
       id="rect2-4-8-5-1-0"
       width="9.7392883"
       height="9.7392883"
       x="123.12875"
       y="134.71741" /><rect
       style="fill:#a3a3a3;fill-opacity:0.611765;stroke:#000000;stroke-width:0.2;stroke-linecap:square;stroke-dasharray:none"
       id="rect2-4-3-2-6-9"
       width="9.7392883"
       height="9.7392883"
       x="123.12875"
       y="144.4567" /><rect
       style="fill:none;fill-opacity:0.997297;stroke:#000000;stroke-width:0.05;stroke-linecap:square;stroke-dasharray:none"
       id="rect2-4-8-5-6-7"
       width="9.7392883"
       height="9.7392883"
       x="113.38945"
       y="134.71741" /><rect
       style="fill:none;fill-opacity:0.997297;stroke:#000000;stroke-width:0.05;stroke-linecap:square;stroke-dasharray:none"
       id="rect2-4-3-2-0-3"
       width="9.7392883"
       height="9.7392883"
       x="113.38945"
       y="144.4567" /><rect
       style="fill:none;fill-opacity:0.997297;stroke:#000000;stroke-width:0.05;stroke-linecap:square;stroke-dasharray:none"
       id="rect2-4-3-9-1"
       width="9.7392883"
       height="9.7392883"
       x="142.60732"
       y="144.4567" /><text
       xml:space="preserve"
       style="font-size:4.23333px;font-family:Times;-inkscape-font-specification:Times;text-align:center;writing-mode:lr-tb;direction:ltr;text-anchor:middle;fill:#000000;fill-opacity:1;stroke:#000000;stroke-width:0;stroke-linecap:square;stroke-dasharray:none"
       x="128.14484"
       y="158.97552"
       id="text2-5"><tspan
         sodipodi:role="line"
         id="tspan2-6"
         style="font-size:4.23333px;fill:#000000;fill-opacity:1;stroke-width:0;stroke-dasharray:none"
         x="128.14484"
         y="158.97552">Step 2</tspan></text><rect
       style="fill:none;fill-opacity:0.997297;stroke:#000000;stroke-width:0.05;stroke-linecap:square;stroke-dasharray:none"
       id="rect2-4-3-1-3-4"
       width="9.7436123"
       height="5.9805622"
       x="105.50491"
       y="-168.08295"
       transform="rotate(90)" /><rect
       style="fill:none;fill-opacity:0.611765;stroke:#000000;stroke-width:0.05;stroke-linecap:square;stroke-dasharray:none"
       id="rect2-4-3-4-2-9-5"
       width="9.7436123"
       height="5.9805622"
       x="115.24852"
       y="-168.08295"
       transform="rotate(90)" /><rect
       style="fill:#dadada;fill-opacity:0.611765;stroke:#000000;stroke-width:0.2;stroke-linecap:square;stroke-dasharray:none"
       id="rect2-4-3-5-0-0-1"
       width="9.7436123"
       height="5.9805622"
       x="124.99212"
       y="-168.08295"
       transform="rotate(90)" /><rect
       style="fill:#a3a3a3;fill-opacity:0.611765;stroke:#000000;stroke-width:0.2;stroke-linecap:square;stroke-dasharray:none"
       id="rect2-4-3-4-2-9-8-2"
       width="9.7436123"
       height="5.9805622"
       x="134.73573"
       y="-168.08295"
       transform="rotate(90)" /><rect
       style="fill:#a3a3a3;fill-opacity:0.611765;stroke:#000000;stroke-width:0.2;stroke-linecap:square;stroke-dasharray:none"
       id="rect2-4-3-5-0-0-4-8"
       width="9.7436123"
       height="5.9805622"
       x="144.47934"
       y="-168.08295"
       transform="rotate(90)" /><path
       id="use1-5-8"
       d="m 166.41434,102.04298 c 0,-0.22027 -0.21548,-0.3304 -0.4549,-0.3304 -0.2059,0 -0.36871,0.11013 -0.49321,0.3304 -0.10055,-0.22027 -0.26815,-0.3304 -0.51236,-0.3304 -0.23463,0 -0.42616,0.11013 -0.57939,0.32561 -0.12929,0.18675 -0.19633,0.32562 -0.19633,0.41659 0,0.0431 0.0239,0.067 0.0718,0.067 0.0431,0 0.0718,-0.0239 0.0814,-0.067 0.091,-0.27772 0.2921,-0.60333 0.61292,-0.60333 0.15802,0 0.23463,0.10055 0.23463,0.29688 0,0.10055 -0.0862,0.47405 -0.25379,1.11569 -0.0814,0.32083 -0.22505,0.47884 -0.43095,0.47884 -0.067,0 -0.12929,-0.0144 -0.18196,-0.0383 0.1245,-0.0479 0.18675,-0.13407 0.18675,-0.25857 0,-0.1245 -0.0623,-0.18675 -0.19154,-0.18675 -0.15802,0 -0.27773,0.13408 -0.27773,0.2921 0,0.22026 0.22506,0.33039 0.45969,0.33039 0.20111,0 0.36392,-0.11013 0.49321,-0.33039 0.091,0.22026 0.26336,0.33039 0.51235,0.33039 0.22985,0 0.42138,-0.11013 0.57461,-0.32561 0.12929,-0.18674 0.19633,-0.32561 0.19633,-0.41659 0,-0.0431 -0.0239,-0.067 -0.0718,-0.067 -0.0431,0 -0.067,0.0239 -0.0814,0.067 -0.0814,0.27294 -0.29688,0.60334 -0.60813,0.60334 -0.15802,0 -0.23942,-0.0958 -0.23942,-0.29209 0,-0.0622 0.0239,-0.19633 0.0766,-0.4118 l 0.16281,-0.64644 c 0.091,-0.35913 0.23942,-0.54109 0.45011,-0.54109 0.067,0 0.12929,0.0144 0.18196,0.0383 -0.12929,0.0431 -0.19154,0.12929 -0.19154,0.25858 0,0.12449 0.067,0.18674 0.19633,0.18674 0.15323,0 0.27294,-0.13886 0.27294,-0.29209 z"
       style="fill:#000000;stroke:#000000;stroke-width:0" /><g
       data-mml-node="msub"
       data-latex="x_j"
       data-semantic-type="subscript"
       data-semantic-role="latinletter"
       data-semantic-annotation="depth:1"
       data-semantic-id="2"
       data-semantic-children="0,1"
       data-semantic-attributes="latex:x_j"
       data-semantic-owns="0 1"
       aria-level="0"
       data-speech-node="true"
       id="g3-0"
       transform="matrix(0.00478763,0,0,-0.00478763,169.81764,130.56104)"
       style="fill:#000000;stroke:#000000;stroke-width:0"><g
         data-mml-node="mi"
         data-latex="x"
         data-semantic-type="identifier"
         data-semantic-role="latinletter"
         data-semantic-font="italic"
         data-semantic-annotation="clearspeak:simple;nemeth:number;depth:2"
         data-semantic-id="0"
         data-semantic-parent="2"
         data-semantic-attributes="latex:x"
         aria-level="1"
         data-speech-node="true"
         id="g1-7"><use
           data-c="1D465"
           xlink:href="#MJX-5-NCM-I-1D465"
           id="use1-7" /></g><g
         data-mml-node="mi"
         transform="matrix(0.707,0,0,0.707,605,-150)"
         data-latex="j"
         data-semantic-type="identifier"
         data-semantic-role="latinletter"
         data-semantic-font="italic"
         data-semantic-annotation="clearspeak:simple;depth:2"
         data-semantic-id="1"
         data-semantic-parent="2"
         data-semantic-attributes="latex:j"
         aria-level="1"
         data-speech-node="true"
         id="g2-9"><use
           data-c="1D457"
           xlink:href="#MJX-5-NCM-I-1D457"
           id="use2-6" /></g></g><path
       style="fill:#000000;fill-opacity:1;stroke:#000000;stroke-width:0.2;stroke-linecap:square;stroke-dasharray:none;stroke-dashoffset:0;marker-end:url(#Triangle-7)"
       d="m 153.8759,139.60754 h 5.87248"
       id="path4-0" /><g
       data-mml-node="mtext"
       data-latex="\texttt{+=}"
       data-semantic-type="text"
       data-semantic-role="unknown"
       data-semantic-font="monospace"
       data-semantic-annotation="clearspeak:unit;nemeth:number;depth:1"
       data-semantic-id="0"
       data-semantic-attributes="latex:\texttt{+=}"
       aria-level="0"
       data-speech-node="true"
       id="g2-8"
       transform="matrix(0.00525437,0,0,-0.00525437,154.14704,139.41761)"
       style="fill:#000000;stroke:#000000;stroke-width:0"><path
         id="use1-0-1"
         d="m 436,268 c 33,0 50,13 50,38 0,25 -17,38 -50,38 H 300 v 137 c 0,33 -13,50 -38,50 -25,0 -38,-17 -38,-50 V 344 H 88 C 55,344 38,331 38,306 38,281 55,268 88,268 H 224 V 131 c 0,-33 13,-50 38,-50 25,0 38,17 38,50 v 137 z" /><path
         id="use2-4"
         d="m 963,342 c 32,0 48,12 48,37 0,25 -18,38 -54,38 H 617 c -36,0 -54,-13 -54,-38 0,-25 16,-37 48,-37 M 957,195 c 36,0 54,13 54,38 0,25 -16,37 -48,37 H 611 c -32,0 -48,-12 -48,-37 0,-25 18,-38 54,-38 z" /></g><rect
       style="fill:none;fill-opacity:0.997297;stroke:#000000;stroke-width:0.05;stroke-linecap:square;stroke-dasharray:none"
       id="rect2-4-8-5-15-0-0"
       width="9.7392883"
       height="9.7392883"
       x="193.85965"
       y="115.21147" /><rect
       style="fill:none;fill-opacity:0.997297;stroke:#000000;stroke-width:0.05;stroke-linecap:square;stroke-dasharray:none"
       id="rect2-4-3-2-1-6-6"
       width="9.7392883"
       height="9.7392883"
       x="193.85965"
       y="124.95074" /><rect
       style="fill:#dadada;fill-opacity:0.611765;stroke:#000000;stroke-width:0.2;stroke-linecap:square;stroke-dasharray:none"
       id="rect2-4-3-2-1-7-3-0"
       width="9.7392883"
       height="9.7392883"
       x="203.59895"
       y="124.95076" /><rect
       style="fill:none;fill-opacity:0.997297;stroke:#000000;stroke-width:0.05;stroke-linecap:square;stroke-dasharray:none"
       id="rect2-46-4"
       width="9.7392883"
       height="9.7392883"
       x="184.12036"
       y="105.47218" /><rect
       style="fill:none;fill-opacity:0.997297;stroke:#000000;stroke-width:0.05;stroke-linecap:square;stroke-dasharray:none"
       id="rect2-4-9-9"
       width="9.7392883"
       height="9.7392883"
       x="184.12036"
       y="115.21149" /><rect
       style="fill:none;fill-opacity:0.997297;stroke:#000000;stroke-width:0.05;stroke-linecap:square;stroke-dasharray:none"
       id="rect2-4-4-7-9"
       width="9.7392883"
       height="9.7392883"
       x="184.12036"
       y="124.95076" /><rect
       style="fill:none;fill-opacity:0.997297;stroke:#000000;stroke-width:0.05;stroke-linecap:square;stroke-dasharray:none"
       id="rect2-4-8-4-4"
       width="9.7392883"
       height="9.7392883"
       x="184.12036"
       y="134.69005" /><rect
       style="fill:none;fill-opacity:0.997297;stroke:#000000;stroke-width:0.05;stroke-linecap:square;stroke-dasharray:none"
       id="rect2-4-3-94-5"
       width="9.7392883"
       height="9.7392883"
       x="184.12036"
       y="144.42934" /><rect
       style="fill:none;fill-opacity:0.997297;stroke:#000000;stroke-width:0.05;stroke-linecap:square;stroke-dasharray:none"
       id="rect2-4-8-5-19-0"
       width="9.7392883"
       height="9.7392883"
       x="213.33823"
       y="134.69005" /><rect
       style="fill:none;fill-opacity:0.997297;stroke:#000000;stroke-width:0.05;stroke-linecap:square;stroke-dasharray:none"
       id="rect2-4-3-2-67-6"
       width="9.7392883"
       height="9.7392883"
       x="213.33823"
       y="144.42934" /><rect
       style="fill:none;fill-opacity:0.611765;stroke:#000000;stroke-width:0.05;stroke-linecap:square;stroke-dasharray:none"
       id="rect2-4-8-5-1-0-9"
       width="9.7392883"
       height="9.7392883"
       x="203.59895"
       y="134.69005" /><rect
       style="fill:none;fill-opacity:0.611765;stroke:#000000;stroke-width:0.05;stroke-linecap:square;stroke-dasharray:none"
       id="rect2-4-3-2-6-9-0"
       width="9.7392883"
       height="9.7392883"
       x="203.59895"
       y="144.42934" /><rect
       style="fill:none;fill-opacity:0.997297;stroke:#000000;stroke-width:0.05;stroke-linecap:square;stroke-dasharray:none"
       id="rect2-4-8-5-6-7-8"
       width="9.7392883"
       height="9.7392883"
       x="193.85965"
       y="134.69005" /><rect
       style="fill:none;fill-opacity:0.997297;stroke:#000000;stroke-width:0.05;stroke-linecap:square;stroke-dasharray:none"
       id="rect2-4-3-2-0-3-8"
       width="9.7392883"
       height="9.7392883"
       x="193.85965"
       y="144.42934" /><rect
       style="fill:none;fill-opacity:0.997297;stroke:#000000;stroke-width:0.05;stroke-linecap:square;stroke-dasharray:none"
       id="rect2-4-3-9-1-2"
       width="9.7392883"
       height="9.7392883"
       x="223.07751"
       y="144.42934" /><text
       xml:space="preserve"
       style="font-size:4.23333px;font-family:Times;-inkscape-font-specification:Times;text-align:center;writing-mode:lr-tb;direction:ltr;text-anchor:middle;fill:#000000;fill-opacity:1;stroke:#000000;stroke-width:0;stroke-linecap:square;stroke-dasharray:none"
       x="208.61504"
       y="158.94817"
       id="text2-5-8"><tspan
         sodipodi:role="line"
         id="tspan2-6-0"
         style="font-size:4.23333px;fill:#000000;fill-opacity:1;stroke-width:0;stroke-dasharray:none"
         x="208.61504"
         y="158.94817">Step 3</tspan></text><rect
       style="fill:none;fill-opacity:0.997297;stroke:#000000;stroke-width:0.05;stroke-linecap:square;stroke-dasharray:none"
       id="rect2-4-3-1-3-4-2"
       width="9.7436123"
       height="5.9805622"
       x="105.47755"
       y="-248.55315"
       transform="rotate(90)" /><rect
       style="fill:none;fill-opacity:0.611765;stroke:#000000;stroke-width:0.05;stroke-linecap:square;stroke-dasharray:none"
       id="rect2-4-3-4-2-9-5-0"
       width="9.7436123"
       height="5.9805622"
       x="115.22116"
       y="-248.55315"
       transform="rotate(90)" /><rect
       style="fill:#dadada;fill-opacity:0.611765;stroke:#000000;stroke-width:0.2;stroke-linecap:square;stroke-dasharray:none"
       id="rect2-4-3-5-0-0-1-9"
       width="9.7436123"
       height="5.9805622"
       x="124.96475"
       y="-248.55315"
       transform="rotate(90)" /><rect
       style="fill:none;fill-opacity:0.611765;stroke:#000000;stroke-width:0.05;stroke-linecap:square;stroke-dasharray:none"
       id="rect2-4-3-4-2-9-8-2-5"
       width="9.7436123"
       height="5.9805622"
       x="134.70837"
       y="-248.55315"
       transform="rotate(90)" /><rect
       style="fill:none;fill-opacity:0.611765;stroke:#000000;stroke-width:0.05;stroke-linecap:square;stroke-dasharray:none"
       id="rect2-4-3-5-0-0-4-8-3"
       width="9.7436123"
       height="5.9805622"
       x="144.45198"
       y="-248.55315"
       transform="rotate(90)" /><path
       id="use1-5-8-5"
       d="m 246.88452,102.01562 c 0,-0.22027 -0.21548,-0.3304 -0.4549,-0.3304 -0.2059,0 -0.36871,0.11013 -0.49321,0.3304 -0.10055,-0.22027 -0.26815,-0.3304 -0.51236,-0.3304 -0.23463,0 -0.42616,0.11013 -0.57939,0.32561 -0.12929,0.18675 -0.19633,0.32562 -0.19633,0.41659 0,0.0431 0.0239,0.067 0.0718,0.067 0.0431,0 0.0718,-0.0239 0.0814,-0.067 0.091,-0.27772 0.2921,-0.60333 0.61292,-0.60333 0.15802,0 0.23463,0.10055 0.23463,0.29688 0,0.10055 -0.0862,0.47405 -0.25379,1.11569 -0.0814,0.32083 -0.22505,0.47884 -0.43095,0.47884 -0.067,0 -0.12929,-0.0144 -0.18196,-0.0383 0.1245,-0.0479 0.18675,-0.13407 0.18675,-0.25857 0,-0.1245 -0.0623,-0.18675 -0.19154,-0.18675 -0.15802,0 -0.27773,0.13408 -0.27773,0.2921 0,0.22026 0.22506,0.33039 0.45969,0.33039 0.20111,0 0.36392,-0.11013 0.49321,-0.33039 0.091,0.22026 0.26336,0.33039 0.51235,0.33039 0.22985,0 0.42138,-0.11013 0.57461,-0.32561 0.12929,-0.18674 0.19633,-0.32561 0.19633,-0.41659 0,-0.0431 -0.0239,-0.067 -0.0718,-0.067 -0.0431,0 -0.067,0.0239 -0.0814,0.067 -0.0814,0.27294 -0.29688,0.60334 -0.60813,0.60334 -0.15802,0 -0.23942,-0.0958 -0.23942,-0.29209 0,-0.0622 0.0239,-0.19633 0.0766,-0.4118 l 0.16281,-0.64644 c 0.091,-0.35913 0.23942,-0.54109 0.45011,-0.54109 0.067,0 0.12929,0.0144 0.18196,0.0383 -0.12929,0.0431 -0.19154,0.12929 -0.19154,0.25858 0,0.12449 0.067,0.18674 0.19633,0.18674 0.15323,0 0.27294,-0.13886 0.27294,-0.29209 z"
       style="fill:#000000;stroke:#000000;stroke-width:0" /><g
       data-mml-node="msubsup"
       data-latex="x_j'"
       data-semantic-type="subsup"
       data-semantic-role="latinletter"
       data-semantic-annotation="depth:1"
       data-semantic-id="4"
       data-semantic-children="0,1,2"
       data-semantic-attributes="latex:x_j'"
       data-semantic-collapsed="(4 (3 0 1) 2)"
       data-semantic-owns="0 1 2"
       aria-level="0"
       data-speech-node="true"
       id="g4"
       transform="matrix(0.00478787,0,0,-0.00478787,250.28761,130.90617)"
       style="fill:#000000;stroke:#000000;stroke-width:0"><g
         data-mml-node="mi"
         data-latex="x"
         data-semantic-type="identifier"
         data-semantic-role="latinletter"
         data-semantic-font="italic"
         data-semantic-annotation="clearspeak:simple;nemeth:number;depth:3"
         data-semantic-id="0"
         data-semantic-parent="4"
         data-semantic-attributes="latex:x"
         aria-level="2"
         data-speech-node="true"
         id="g1-4"><use
           data-c="1D465"
           xlink:href="#MJX-8-NCM-I-1D465"
           id="use1-9" /></g><g
         data-mml-node="mo"
         transform="matrix(0.707,0,0,0.707,605,413)"
         data-latex="'"
         data-semantic-type="punctuation"
         data-semantic-role="prime"
         data-semantic-annotation="depth:2"
         data-semantic-id="2"
         data-semantic-parent="4"
         data-semantic-attributes="latex:'"
         aria-level="1"
         data-speech-node="true"
         id="g2-0"><use
           data-c="2032"
           xlink:href="#MJX-8-NCM-V-2032"
           id="use2-2" /></g><g
         data-mml-node="mi"
         transform="matrix(0.707,0,0,0.707,605,-247)"
         data-latex="j"
         data-semantic-type="identifier"
         data-semantic-role="latinletter"
         data-semantic-font="italic"
         data-semantic-annotation="clearspeak:simple;depth:3"
         data-semantic-id="1"
         data-semantic-parent="4"
         data-semantic-attributes="latex:j"
         aria-level="2"
         data-speech-node="true"
         id="g3-03"><use
           data-c="1D457"
           xlink:href="#MJX-8-NCM-I-1D457"
           id="use3" /></g></g><path
       style="fill:#000000;fill-opacity:1;stroke:#000000;stroke-width:0.2;stroke-linecap:square;stroke-dasharray:none;stroke-dashoffset:0;marker-end:url(#Triangle-7-9)"
       d="m 153.8759,149.55 h 5.87248"
       id="path4-0-7" /><g
       data-mml-node="mtext"
       data-latex="\texttt{+=}"
       data-semantic-type="text"
       data-semantic-role="unknown"
       data-semantic-font="monospace"
       data-semantic-annotation="clearspeak:unit;nemeth:number;depth:1"
       data-semantic-id="0"
       data-semantic-attributes="latex:\texttt{+=}"
       aria-level="0"
       data-speech-node="true"
       id="g2-8-2"
       transform="matrix(0.00525437,0,0,-0.00525437,154.14704,149.36007)"
       style="fill:#000000;stroke:#000000;stroke-width:0"><path
         id="use1-0-1-8"
         d="m 436,268 c 33,0 50,13 50,38 0,25 -17,38 -50,38 H 300 v 137 c 0,33 -13,50 -38,50 -25,0 -38,-17 -38,-50 V 344 H 88 C 55,344 38,331 38,306 38,281 55,268 88,268 H 224 V 131 c 0,-33 13,-50 38,-50 25,0 38,17 38,50 v 137 z" /><path
         id="use2-4-0"
         d="m 963,342 c 32,0 48,12 48,37 0,25 -18,38 -54,38 H 617 c -36,0 -54,-13 -54,-38 0,-25 16,-37 48,-37 M 957,195 c 36,0 54,13 54,38 0,25 -16,37 -48,37 H 611 c -32,0 -48,-12 -48,-37 0,-25 18,-38 54,-38 z" /></g><path
       style="fill:#000000;fill-opacity:1;stroke:#000000;stroke-width:0.2;stroke-linecap:square;stroke-dasharray:none;stroke-dashoffset:0;marker-end:url(#Triangle-7-3)"
       d="m 234.28459,130.17525 h 5.87248"
       id="path4-0-1" /><g
       data-mml-node="mtext"
       data-latex="\texttt{+=}"
       data-semantic-type="text"
       data-semantic-role="unknown"
       data-semantic-font="monospace"
       data-semantic-annotation="clearspeak:unit;nemeth:number;depth:1"
       data-semantic-id="0"
       data-semantic-attributes="latex:\texttt{+=}"
       aria-level="0"
       data-speech-node="true"
       id="g2-8-9"
       transform="matrix(0.00525437,0,0,-0.00525437,234.55573,129.98532)"
       style="fill:#000000;stroke:#000000;stroke-width:0"><path
         id="use1-0-1-1"
         d="m 436,268 c 33,0 50,13 50,38 0,25 -17,38 -50,38 H 300 v 137 c 0,33 -13,50 -38,50 -25,0 -38,-17 -38,-50 V 344 H 88 C 55,344 38,331 38,306 38,281 55,268 88,268 H 224 V 131 c 0,-33 13,-50 38,-50 25,0 38,17 38,50 v 137 z" /><path
         id="use2-4-6"
         d="m 963,342 c 32,0 48,12 48,37 0,25 -18,38 -54,38 H 617 c -36,0 -54,-13 -54,-38 0,-25 16,-37 48,-37 M 957,195 c 36,0 54,13 54,38 0,25 -16,37 -48,37 H 611 c -32,0 -48,-12 -48,-37 0,-25 18,-38 54,-38 z" /></g></g></svg>
